<?xml version="1.0" standalone="no"?>
<!DOCTYPE svg PUBLIC "-//W3C//DTD SVG 20010904//EN"
 "http://www.w3.org/TR/2001/REC-SVG-20010904/DTD/svg10.dtd">
<svg version="1.0" xmlns="http://www.w3.org/2000/svg"
 width="512.000000pt" height="512.000000pt" viewBox="0 0 512.000000 512.000000"
 preserveAspectRatio="xMidYMid meet">

<g transform="translate(0.000000,512.000000) scale(0.100000,-0.100000)"
fill="#000000" stroke="none">
<path d="M2340 5105 c0 -12 14 -15 70 -15 56 0 70 -3 70 -15 0 -12 16 -15 80
-15 50 0 80 -4 80 -11 0 -6 -19 -10 -47 -9 -27 1 -108 1 -180 1 -111 -1 -133
-3 -133 -16 0 -13 -22 -15 -140 -15 -118 0 -140 -2 -140 -15 0 -12 -16 -15
-80 -15 -64 0 -80 -3 -80 -15 0 -11 -12 -15 -45 -15 -25 0 -45 -4 -45 -10 0
-5 -18 -10 -40 -10 -29 0 -40 -4 -40 -15 0 -10 -10 -15 -30 -15 -20 0 -30 -5
-30 -15 0 -9 -9 -15 -25 -15 -16 0 -25 -6 -25 -15 0 -11 -12 -15 -45 -15 -33
0 -45 -4 -45 -15 0 -11 -11 -15 -40 -15 -22 0 -40 -4 -40 -10 0 -5 -11 -10
-25 -10 -16 0 -25 -6 -25 -15 0 -11 -12 -15 -45 -15 -33 0 -45 -4 -45 -15 0
-9 -9 -15 -25 -15 -16 0 -25 -6 -25 -15 0 -8 -7 -15 -15 -15 -8 0 -15 -7 -15
-15 0 -10 -10 -15 -30 -15 -16 0 -30 -4 -30 -10 0 -5 -11 -10 -25 -10 -16 0
-25 -6 -25 -15 0 -8 -7 -15 -15 -15 -8 0 -15 -7 -15 -15 0 -8 -7 -15 -15 -15
-8 0 -15 -7 -15 -15 0 -9 -9 -15 -25 -15 -14 0 -25 -4 -25 -10 0 -5 -7 -10
-15 -10 -8 0 -15 -7 -15 -15 0 -8 -7 -15 -15 -15 -8 0 -15 -7 -15 -15 0 -8 -7
-15 -15 -15 -8 0 -15 -7 -15 -15 0 -8 -7 -15 -15 -15 -8 0 -15 -5 -15 -11 0
-19 -28 -39 -54 -39 -16 0 -26 -6 -26 -15 0 -8 -7 -15 -15 -15 -9 0 -15 -10
-15 -26 0 -26 -20 -54 -39 -54 -6 0 -11 -7 -11 -15 0 -8 -7 -15 -15 -15 -8 0
-15 -7 -15 -15 0 -8 -7 -15 -15 -15 -8 0 -15 -7 -15 -15 0 -8 -7 -15 -15 -15
-8 0 -15 -7 -15 -15 0 -8 -4 -15 -10 -15 -5 0 -10 -11 -10 -25 0 -16 -6 -25
-15 -25 -8 0 -15 -7 -15 -15 0 -8 -7 -15 -15 -15 -8 0 -15 -7 -15 -15 0 -8 -7
-15 -15 -15 -9 0 -15 -9 -15 -25 0 -14 -4 -25 -10 -25 -5 0 -10 -7 -10 -15 0
-8 -7 -15 -15 -15 -10 0 -15 -10 -15 -30 0 -20 -5 -30 -15 -30 -8 0 -15 -4
-15 -10 0 -5 -7 -10 -15 -10 -10 0 -15 -10 -15 -30 0 -20 -5 -30 -15 -30 -9 0
-15 -10 -15 -26 0 -26 -20 -54 -39 -54 -6 0 -11 -20 -11 -45 0 -33 -4 -45 -15
-45 -9 0 -15 -9 -15 -25 0 -16 -6 -25 -15 -25 -10 0 -15 -10 -15 -30 0 -20 -5
-30 -15 -30 -12 0 -15 -14 -15 -70 0 -40 -4 -70 -10 -70 -5 0 -10 -18 -10 -40
0 -29 -4 -40 -15 -40 -13 0 -15 -36 -15 -265 0 -229 -2 -265 -15 -265 -12 0
-15 -16 -15 -86 0 -72 2 -85 15 -80 12 4 15 -5 15 -54 0 -47 3 -60 15 -60 12
0 15 -13 15 -57 0 -41 3 -54 10 -43 7 10 10 -11 10 -67 0 -67 3 -83 15 -83 12
0 15 -13 15 -55 0 -42 3 -55 15 -55 11 0 15 -11 15 -40 0 -29 4 -40 15 -40 10
0 15 -10 15 -30 0 -20 5 -30 15 -30 9 0 15 -9 15 -25 0 -14 5 -25 10 -25 6 0
10 -13 10 -30 0 -20 5 -30 15 -30 11 0 15 -11 15 -40 0 -29 4 -40 15 -40 9 0
15 -9 15 -25 0 -14 7 -28 15 -31 8 -4 15 -17 15 -30 0 -15 6 -24 15 -24 10 0
15 -10 15 -30 0 -16 5 -30 10 -30 6 0 10 -18 10 -40 0 -29 4 -40 15 -40 11 0
15 -12 15 -45 0 -33 4 -45 15 -45 12 0 15 -13 15 -55 0 -42 3 -55 15 -55 11 0
15 -11 15 -40 0 -22 5 -40 10 -40 6 0 10 -20 10 -45 0 -33 4 -45 15 -45 9 0
15 -9 15 -25 0 -16 6 -25 15 -25 10 0 15 -10 15 -30 0 -20 5 -30 15 -30 11 0
15 -11 15 -40 0 -29 4 -40 15 -40 10 0 15 -10 15 -30 0 -16 5 -30 10 -30 6 0
10 -18 10 -40 0 -29 4 -40 15 -40 10 0 15 -10 15 -30 0 -20 5 -30 15 -30 9 0
15 -9 15 -25 0 -16 6 -25 15 -25 11 0 15 -11 15 -40 0 -22 5 -40 10 -40 6 0
10 -7 10 -15 0 -8 7 -15 15 -15 8 0 15 -7 15 -15 0 -8 7 -15 15 -15 8 0 15 -7
15 -15 0 -8 7 -15 15 -15 8 0 15 7 15 15 0 8 -7 15 -15 15 -10 0 -15 10 -15
30 0 20 -5 30 -15 30 -9 0 -15 9 -15 25 0 16 -6 25 -15 25 -10 0 -15 10 -15
30 0 17 -4 30 -10 30 -5 0 -10 18 -10 40 0 29 -4 40 -15 40 -10 0 -15 10 -15
30 0 20 -5 30 -15 30 -9 0 -15 9 -15 25 0 16 -6 25 -15 25 -10 0 -15 10 -15
30 0 17 -4 30 -10 30 -5 0 -10 18 -10 40 0 29 -4 40 -15 40 -12 0 -15 13 -15
55 0 42 -3 55 -15 55 -11 0 -15 12 -15 45 0 33 -4 45 -15 45 -9 0 -15 9 -15
25 0 16 -6 25 -15 25 -11 0 -15 11 -15 40 0 30 4 40 16 40 8 0 12 -5 9 -10 -3
-5 3 -10 14 -10 17 0 21 -6 21 -30 0 -20 5 -30 15 -30 9 0 15 -9 15 -25 0 -16
6 -25 15 -25 8 0 15 -7 15 -15 0 -8 5 -15 10 -15 6 0 10 -7 10 -15 0 -8 7 -15
15 -15 8 0 15 -7 15 -15 0 -8 7 -15 15 -15 9 0 15 -9 15 -25 0 -16 6 -25 15
-25 8 0 15 -7 15 -15 0 -8 5 -15 10 -15 6 0 10 -7 10 -15 0 -8 7 -15 15 -15 9
0 15 -9 15 -25 0 -16 6 -25 15 -25 8 0 15 -7 15 -15 0 -8 7 -15 15 -15 8 0 15
-7 15 -15 0 -8 7 -15 15 -15 8 0 15 -7 15 -15 0 -8 5 -15 10 -15 6 0 10 -7 10
-15 0 -8 7 -15 15 -15 8 0 15 -4 15 -10 0 -5 7 -10 15 -10 8 0 15 -5 15 -11 0
-5 -4 -8 -9 -5 -5 4 -4 -5 2 -19 7 -14 18 -25 25 -25 6 0 12 -7 12 -15 0 -8 7
-15 15 -15 8 0 15 -5 15 -11 0 -14 25 -39 39 -39 6 0 11 -7 11 -15 0 -8 7 -15
15 -15 8 0 15 -7 15 -15 0 -8 7 -15 15 -15 8 0 15 -7 15 -15 0 -8 5 -15 10
-15 6 0 10 -67 10 -180 l0 -180 30 0 30 0 0 140 c0 118 2 140 15 140 12 0 15
13 15 55 0 42 3 55 15 55 11 0 15 11 15 40 0 22 5 40 10 40 6 0 10 14 10 30 0
20 5 30 15 30 8 0 15 7 15 15 0 8 7 15 15 15 8 0 15 7 15 15 0 8 5 15 11 15
14 0 39 25 39 39 0 6 20 11 45 11 33 0 45 -4 45 -15 0 -9 9 -15 25 -15 14 0
25 -4 25 -10 0 -5 7 -10 15 -10 8 0 15 -7 15 -15 0 -8 7 -15 15 -15 8 0 15 -7
15 -15 0 -8 7 -15 15 -15 8 0 15 -7 15 -15 0 -8 7 -15 15 -15 8 0 15 -5 15
-11 0 -14 25 -39 39 -39 6 0 11 -7 11 -15 0 -8 7 -15 15 -15 8 0 15 -7 15 -15
0 -9 9 -15 25 -15 16 0 25 -6 25 -15 0 -8 7 -15 15 -15 8 0 15 -4 15 -10 0 -5
7 -10 15 -10 8 0 15 -7 15 -15 0 -8 7 -15 15 -15 8 0 15 -7 15 -15 0 -9 9 -15
25 -15 16 0 25 -6 25 -15 0 -8 7 -15 15 -15 10 0 15 -10 16 -27 0 -16 3 -22 6
-15 7 17 23 5 23 -19 0 -14 -7 -19 -30 -19 -20 0 -30 -5 -30 -15 0 -8 -4 -15
-10 -15 -5 0 -10 -7 -10 -15 0 -8 -7 -15 -15 -15 -8 0 -15 -4 -15 -10 0 -5 -7
-10 -15 -10 -8 0 -15 -7 -15 -15 0 -8 -7 -15 -15 -15 -8 0 -15 -7 -15 -15 0
-9 -9 -15 -25 -15 -16 0 -25 -6 -25 -15 0 -10 -10 -15 -30 -15 -20 0 -30 -5
-30 -15 0 -8 -7 -15 -16 -15 -34 0 -94 -24 -94 -37 0 -7 -7 -13 -15 -13 -8 0
-15 -7 -15 -15 0 -9 -9 -15 -25 -15 -21 0 -25 -5 -25 -30 0 -25 4 -30 25 -30
16 0 25 6 25 15 0 10 10 15 30 15 28 0 30 -2 30 -40 0 -36 3 -40 25 -40 23 0
25 4 25 40 0 29 4 40 15 40 8 0 15 7 15 15 0 8 7 15 15 15 8 0 15 7 15 15 0 8
7 15 15 15 8 0 15 5 15 11 0 14 25 39 39 39 6 0 11 7 11 15 0 8 7 15 15 15 8
0 15 7 15 15 0 8 8 15 18 15 22 0 62 32 62 49 0 6 7 11 15 11 8 0 15 5 15 10
0 6 7 10 15 10 8 0 15 7 15 15 0 8 7 15 15 15 8 0 15 7 15 15 0 9 9 15 25 15
16 0 25 6 25 15 0 12 14 15 70 15 40 0 70 4 70 10 0 6 14 10 30 10 17 0 30 -4
30 -10 0 -5 7 -10 15 -10 8 0 15 -7 15 -15 0 -8 5 -15 10 -15 6 0 10 -18 10
-40 0 -29 4 -40 16 -40 12 0 15 -11 13 -53 -2 -36 -7 -54 -15 -54 -7 0 -11 4
-8 9 3 4 -22 8 -55 8 -48 0 -61 -3 -61 -15 0 -8 7 -15 15 -15 8 0 15 -4 15
-10 0 -5 14 -10 30 -10 20 0 30 -5 30 -15 0 -9 9 -15 25 -15 21 0 25 -5 25
-30 0 -20 5 -30 15 -30 8 0 15 -7 15 -15 0 -8 -7 -15 -15 -15 -9 0 -15 -9 -15
-25 0 -16 -6 -25 -15 -25 -8 0 -15 -7 -15 -15 0 -8 -4 -15 -10 -15 -5 0 -10
-18 -10 -40 0 -22 5 -40 10 -40 6 0 10 -7 10 -15 0 -8 7 -15 15 -15 12 0 15
13 15 55 0 42 3 55 15 55 8 0 15 7 15 15 0 8 7 15 15 15 12 0 15 14 15 70 0
60 -3 70 -17 71 -15 0 -15 2 2 9 17 7 17 9 3 9 -16 1 -18 13 -18 101 0 82 -3
100 -15 100 -10 0 -15 10 -15 30 0 20 -5 30 -15 30 -9 0 -15 9 -15 25 0 14 -4
25 -10 25 -5 0 -10 7 -10 15 0 8 -3 14 -7 14 -5 -1 -18 -1 -30 0 -22 1 -23 5
-23 86 0 69 3 85 15 85 12 0 15 17 15 95 0 78 3 95 15 95 12 0 15 19 15 109 0
62 4 111 10 113 6 2 10 97 10 240 1 200 4 238 16 238 8 0 14 7 14 15 0 13 62
15 500 15 327 0 500 3 500 10 0 7 165 10 475 10 l475 0 0 -46 c0 -37 3 -45 15
-40 8 3 15 1 15 -5 0 -5 -7 -12 -15 -15 -8 -4 -15 -17 -15 -30 0 -15 6 -24 15
-24 13 0 15 -50 15 -390 0 -253 4 -390 10 -390 6 0 10 62 10 165 0 140 2 165
15 165 10 0 15 10 15 30 0 20 5 30 15 30 11 0 15 11 15 40 0 29 4 40 15 40 12
0 15 13 15 55 0 42 3 55 15 55 12 0 15 15 15 76 0 57 3 73 13 68 8 -5 8 -2 -2
9 -12 15 -11 17 13 17 26 0 26 0 28 -87 0 -49 1 -94 1 -100 -1 -7 5 -13 13
-13 11 0 14 -18 14 -80 0 -64 3 -80 15 -80 11 0 15 -12 15 -45 0 -25 5 -45 10
-45 6 0 10 7 10 15 0 8 7 15 15 15 10 0 15 10 15 30 0 20 5 30 15 30 8 0 15 5
15 10 0 6 7 10 15 10 10 0 15 10 15 30 0 20 5 30 15 30 9 0 15 10 15 26 0 26
20 54 39 54 6 0 11 20 11 45 0 33 4 45 15 45 9 0 15 9 15 25 0 16 6 25 15 25
12 0 15 13 15 56 0 46 -3 55 -15 50 -12 -4 -15 6 -15 59 0 51 -3 65 -15 65
-12 0 -15 14 -15 65 0 51 -3 65 -15 65 -12 0 -15 14 -15 70 0 40 -4 70 -10 70
-6 0 -10 30 -10 70 0 56 -3 70 -15 70 -12 0 -15 13 -15 55 0 42 -3 55 -15 55
-11 0 -15 12 -15 45 0 33 -4 45 -15 45 -11 0 -15 11 -15 40 0 29 -4 40 -15 40
-12 0 -15 13 -15 55 0 30 -4 55 -10 55 -5 0 -10 20 -10 45 0 33 -4 45 -15 45
-11 0 -15 11 -15 40 0 29 -4 40 -15 40 -11 0 -15 11 -15 40 0 29 -4 40 -15 40
-11 0 -15 12 -15 45 0 25 -4 45 -10 45 -5 0 -10 11 -10 25 0 16 -6 25 -15 25
-11 0 -15 12 -15 45 0 33 -4 45 -15 45 -12 0 -15 13 -15 55 0 42 -3 55 -15 55
-12 0 -15 14 -15 65 0 49 -4 67 -15 71 -10 4 -15 20 -15 45 0 21 -4 39 -10 39
-5 0 -10 25 -10 55 0 42 -3 55 -15 55 -12 0 -15 14 -15 70 0 56 -3 70 -15 70
-12 0 -15 14 -15 70 0 56 -3 70 -15 70 -11 0 -15 11 -15 40 0 22 -4 40 -10 40
-5 0 -10 7 -10 15 0 8 -7 15 -15 15 -10 0 -15 10 -15 30 0 20 -5 30 -15 30 -9
0 -15 9 -15 25 0 16 -6 25 -15 25 -10 0 -15 10 -15 34 0 19 -5 38 -12 42 -7 4
-8 3 -4 -4 4 -7 2 -12 -3 -12 -6 0 -11 11 -11 25 0 14 -4 25 -10 25 -5 0 -10
14 -10 30 0 20 -5 30 -15 30 -9 0 -15 9 -15 25 0 16 -6 25 -15 25 -10 0 -15
10 -15 30 0 20 -5 30 -15 30 -10 0 -15 10 -15 30 0 20 -5 30 -15 30 -9 0 -15
9 -15 25 0 14 -4 25 -10 25 -5 0 -10 7 -10 15 0 8 -7 15 -15 15 -8 0 -15 7
-15 15 0 8 -7 15 -15 15 -8 0 -15 5 -15 10 0 6 -7 10 -15 10 -10 0 -15 10 -15
30 0 17 -4 30 -10 30 -5 0 -10 7 -10 15 0 8 -7 15 -15 15 -8 0 -15 7 -15 15 0
8 -7 15 -15 15 -8 0 -15 5 -15 10 0 6 -7 10 -15 10 -8 0 -15 7 -15 15 0 8 -7
15 -15 15 -8 0 -15 7 -15 15 0 8 -4 15 -10 15 -5 0 -10 7 -10 15 0 10 -10 15
-30 15 -16 0 -30 5 -30 10 0 6 -7 10 -15 10 -8 0 -15 4 -15 10 0 19 -35 50
-57 50 -14 0 -23 6 -23 15 0 8 -7 15 -15 15 -8 0 -15 7 -15 15 0 8 -7 15 -15
15 -8 0 -15 5 -15 10 0 6 -11 10 -25 10 -16 0 -25 6 -25 15 0 10 -10 15 -30
15 -20 0 -30 5 -30 15 0 9 -9 15 -25 15 -16 0 -25 6 -25 15 0 11 -12 15 -45
15 -33 0 -45 4 -45 15 0 9 -9 15 -25 15 -14 0 -25 5 -25 10 0 6 -20 10 -45 10
-33 0 -45 4 -45 15 0 9 -9 15 -25 15 -16 0 -25 6 -25 15 0 10 -10 15 -29 15
-16 0 -36 7 -45 15 -8 8 -26 15 -40 15 -14 0 -26 6 -26 13 0 9 -3 8 -9 -2 -6
-9 -11 -10 -15 -2 -4 6 -25 11 -47 11 -28 0 -39 4 -39 15 0 12 -17 15 -94 15
-74 0 -95 3 -100 15 -4 12 -31 15 -156 15 -127 0 -150 -2 -150 -15z m1110
-765 c0 -31 19 -43 21 -12 1 11 4 8 8 -8 4 -14 13 -24 19 -22 7 1 12 -7 12
-18 0 -11 5 -20 10 -20 6 0 10 -7 10 -15 0 -8 7 -15 15 -15 8 0 15 -7 15 -15
0 -8 7 -15 15 -15 8 0 15 -7 15 -15 0 -8 7 -15 15 -15 9 0 15 -9 15 -25 0 -16
6 -25 15 -25 8 0 15 -7 15 -15 0 -8 5 -15 10 -15 6 0 10 -7 10 -15 0 -9 -9
-15 -24 -15 -13 0 -26 7 -30 15 -4 12 -25 15 -101 15 -78 0 -95 -3 -95 -15 0
-8 -7 -15 -15 -15 -8 0 -15 -7 -15 -15 0 -12 18 -15 100 -15 60 0 100 -4 100
-10 0 -5 14 -10 30 -10 20 0 30 -5 30 -15 0 -9 9 -15 25 -15 16 0 25 -6 25
-15 0 -8 7 -15 15 -15 8 0 15 -7 15 -15 0 -8 5 -15 11 -15 6 0 17 -6 25 -14 8
-8 14 -19 14 -25 0 -6 7 -11 15 -11 8 0 15 -7 15 -15 0 -8 7 -15 15 -15 10 0
15 -10 15 -30 0 -20 5 -30 15 -30 8 0 15 -4 15 -10 0 -5 7 -10 15 -10 10 0 15
-10 15 -30 0 -16 5 -30 10 -30 6 0 10 -11 10 -25 0 -16 6 -25 15 -25 10 0 15
-10 15 -30 0 -20 5 -30 15 -30 13 0 20 -18 16 -43 -1 -4 6 -10 14 -13 8 -4 15
-17 15 -30 0 -13 5 -24 10 -24 6 0 10 -13 10 -30 0 -20 5 -30 15 -30 11 0 15
-11 15 -40 0 -29 4 -40 15 -40 11 0 15 -11 15 -40 0 -29 4 -40 15 -40 12 0 15
-13 15 -60 0 -47 3 -60 15 -60 13 0 15 -36 15 -260 0 -167 4 -260 10 -260 6 0
10 -13 10 -30 0 -20 5 -30 15 -30 13 0 22 -41 16 -74 -1 -5 5 -4 13 4 14 11
16 9 16 -14 0 -16 5 -26 15 -26 14 0 19 -14 18 -47 -1 -7 5 -13 13 -13 11 0
14 -25 14 -125 0 -100 -3 -125 -14 -125 -7 0 -17 -8 -20 -17 -15 -39 -31 -63
-43 -63 -7 0 -13 -7 -13 -15 0 -8 -7 -15 -15 -15 -8 0 -15 -7 -15 -15 0 -9 -9
-15 -25 -15 -14 0 -25 -4 -25 -10 0 -5 -13 -10 -30 -10 -20 0 -30 -5 -30 -15
0 -8 -7 -15 -15 -15 -8 0 -15 -7 -15 -15 0 -9 -9 -15 -25 -15 -16 0 -25 -6
-25 -15 0 -10 -10 -15 -30 -15 -20 0 -30 -5 -30 -15 0 -11 -11 -15 -40 -15
-22 0 -40 -4 -40 -10 0 -5 -13 -10 -30 -10 -20 0 -30 -5 -30 -15 0 -11 -11
-15 -40 -15 -29 0 -40 -4 -40 -15 0 -13 -78 -15 -640 -15 -562 0 -640 2 -640
15 0 9 -9 15 -25 15 -22 0 -25 -4 -25 -40 0 -29 -4 -40 -15 -40 -8 0 -15 -7
-15 -15 0 -11 -12 -15 -45 -15 -33 0 -45 4 -45 15 0 11 -13 15 -54 15 -30 0
-58 5 -62 11 -4 8 -9 7 -15 -2 -6 -10 -9 -11 -9 -1 0 6 -11 12 -25 12 -16 0
-25 6 -25 15 0 10 -10 15 -30 15 l-30 0 0 100 c0 60 -4 100 -10 100 -6 0 -10
38 -10 95 0 78 -3 95 -15 95 -12 0 -15 16 -15 85 0 61 -3 85 -12 85 -10 0 -10
2 0 9 11 7 11 9 -2 14 -12 5 -16 21 -16 72 0 51 -3 65 -15 65 -13 0 -15 22
-15 140 0 118 -2 140 -15 140 -12 0 -15 19 -15 114 0 82 -4 116 -12 120 -10 5
-10 7 0 12 6 3 12 19 12 35 0 19 5 29 15 29 8 0 15 7 15 15 0 10 10 15 30 15
17 0 30 5 30 10 0 6 7 10 15 10 8 0 15 7 15 15 0 8 5 15 10 15 6 0 10 7 10 15
0 10 10 15 30 15 20 0 30 5 30 15 0 8 7 15 15 15 8 0 15 7 15 15 0 9 9 15 25
15 14 0 25 5 25 10 0 6 7 10 15 10 8 0 15 7 15 15 0 8 7 15 15 15 8 0 15 7 15
15 0 8 7 15 15 15 8 0 15 7 15 15 0 9 9 15 25 15 14 0 25 5 25 10 0 6 7 10 15
10 8 0 15 7 15 15 0 8 7 15 15 15 8 0 15 7 15 15 0 8 7 15 15 15 8 0 15 7 15
15 0 8 5 15 10 15 6 0 10 7 10 15 0 10 10 15 30 15 20 0 30 -5 30 -15 0 -8 -7
-15 -15 -15 -10 0 -15 -10 -15 -30 0 -20 -5 -30 -15 -30 -8 0 -15 -5 -15 -11
0 -14 -25 -39 -39 -39 -6 0 -11 -7 -11 -15 0 -8 -7 -15 -15 -15 -8 0 -15 -6
-16 -12 0 -10 -2 -10 -6 0 -9 23 -23 12 -23 -18 0 -20 -5 -30 -15 -30 -11 0
-15 -11 -15 -41 0 -24 -4 -38 -10 -34 -6 4 -10 -40 -10 -124 0 -81 4 -131 10
-131 6 0 10 -25 10 -55 0 -42 3 -55 15 -55 10 0 15 -10 15 -30 0 -19 5 -30 14
-30 8 0 16 -10 18 -22 2 -17 11 -24 31 -26 15 -2 27 -9 27 -18 0 -10 12 -14
40 -14 29 0 40 4 40 15 0 8 5 15 11 15 17 0 39 27 39 50 0 11 7 23 15 26 9 4
15 19 15 35 0 19 5 29 15 29 11 0 15 11 15 40 0 29 -4 40 -15 40 -12 0 -15 13
-15 55 0 42 -3 55 -15 55 -11 0 -15 13 -15 54 0 30 -4 56 -9 58 -6 2 -11 22
-12 46 -2 27 -8 42 -16 42 -7 0 -13 11 -13 25 0 16 -6 25 -15 25 -10 0 -15 10
-15 30 0 20 5 30 15 30 9 0 15 9 15 25 0 16 6 25 15 25 12 0 15 14 15 70 0 40
4 70 10 70 6 0 10 7 10 15 0 8 7 15 15 15 8 0 15 7 15 15 0 8 7 15 15 15 8 0
15 7 15 15 0 8 7 15 15 15 8 0 15 5 15 10 0 6 7 10 15 10 8 0 15 7 15 15 0 8
5 15 10 15 6 0 10 7 10 15 0 8 7 15 15 15 8 0 15 7 15 15 0 8 7 15 15 15 8 0
15 5 15 10 0 6 7 10 15 10 8 0 15 9 15 20 0 11 5 20 10 20 6 0 10 -13 10 -30
0 -16 -4 -30 -10 -30 -5 0 -10 -13 -10 -30 0 -20 -5 -30 -15 -30 -11 0 -15
-11 -15 -40 0 -29 -4 -40 -15 -40 -10 0 -15 -10 -15 -30 0 -20 -5 -30 -15 -30
-9 0 -15 -9 -15 -25 0 -14 -4 -25 -10 -25 -5 0 -10 -13 -10 -30 0 -20 -5 -30
-15 -30 -10 0 -15 -10 -15 -30 0 -20 -5 -30 -15 -30 -11 0 -15 -11 -15 -40 0
-29 4 -40 15 -40 8 0 15 7 15 15 0 8 7 15 15 15 9 0 15 9 15 25 0 14 5 25 10
25 6 0 10 9 10 21 0 13 4 18 13 13 8 -5 8 -2 -2 9 -12 15 -10 17 18 17 21 0
31 5 31 15 0 8 7 15 15 15 8 0 15 5 15 11 0 14 25 39 39 39 6 0 11 7 11 15 0
8 7 15 15 15 8 0 15 7 15 15 0 8 7 15 15 15 8 0 15 7 15 15 0 8 7 15 15 15 8
0 15 5 15 11 0 19 28 39 54 39 22 0 26 4 26 30 0 20 5 30 15 30 8 0 15 7 15
15 0 8 5 15 11 15 6 0 17 6 25 14 8 8 14 19 14 25 0 6 7 11 15 11 8 0 15 7 15
15 0 8 7 15 15 15 8 0 15 7 15 15 0 8 7 15 15 15 9 0 15 9 15 25 0 14 5 25 10
25 6 0 10 7 10 15 0 8 7 15 15 15 10 0 15 10 15 30 0 17 5 30 11 30 5 0 7 -5
3 -12 -4 -7 -3 -8 4 -4 7 4 12 14 12 22 0 8 7 14 15 14 8 0 15 7 15 15 0 8 7
15 15 15 10 0 15 10 15 30 0 17 5 30 10 30 6 0 10 7 10 15 0 8 7 15 15 15 11
0 15 11 15 40 0 29 4 40 15 40 10 0 15 10 15 30 0 17 5 30 11 30 19 0 39 28
39 54 0 22 4 26 30 26 27 0 30 -3 30 -30z m1060 -2325 c0 -78 3 -95 15 -95 12
0 15 -19 15 -110 0 -91 -3 -110 -15 -110 -12 0 -15 -18 -15 -100 0 -82 -3
-100 -15 -100 -12 0 -15 -14 -15 -70 l0 -70 -30 0 -30 0 0 225 c0 193 2 225
15 225 12 0 15 19 15 114 0 76 4 117 12 122 7 4 8 3 4 -4 -4 -7 -2 -12 3 -12
6 0 11 18 11 40 0 29 4 40 15 40 12 0 15 -17 15 -95z m-2170 -750 c0 -8 -7
-15 -15 -15 -8 0 -15 7 -15 15 0 8 7 15 15 15 8 0 15 -7 15 -15z m-90 -124 c0
-40 5 -65 15 -75 9 -9 15 -34 15 -65 0 -39 4 -51 15 -51 8 0 15 -7 15 -15 0
-8 -7 -15 -15 -15 -8 0 -15 -7 -15 -15 0 -8 -7 -15 -15 -15 -8 0 -15 5 -15 11
0 5 6 7 13 3 10 -6 10 -4 0 7 -7 7 -13 30 -13 51 0 21 -4 38 -10 38 -5 0 -10
25 -10 55 0 42 -3 55 -15 55 -11 0 -15 12 -15 45 0 41 2 45 25 45 24 0 25 -3
25 -59z"/>
<path d="M3620 3545 c0 -8 -7 -15 -15 -15 -8 0 -15 -4 -15 -10 0 -5 -7 -10
-15 -10 -8 0 -15 -7 -15 -15 0 -9 -9 -15 -25 -15 -16 0 -25 -6 -25 -15 0 -8
-7 -15 -15 -15 -8 0 -15 -7 -15 -15 0 -8 -7 -15 -15 -15 -8 0 -15 -7 -15 -15
0 -8 -7 -15 -15 -15 -9 0 -15 -9 -15 -24 0 -13 -8 -27 -17 -30 -15 -6 -15 -8
-3 -16 10 -7 11 -10 3 -10 -10 0 -13 -26 -13 -95 0 -78 3 -95 15 -95 12 0 15
-14 15 -70 0 -56 3 -70 15 -70 11 0 15 -12 15 -45 0 -33 4 -45 15 -45 9 0 15
-9 15 -25 0 -16 6 -25 15 -25 8 0 15 -7 15 -15 0 -8 5 -15 10 -15 6 0 10 -7
10 -15 0 -8 7 -15 15 -15 8 0 15 -7 15 -15 0 -10 10 -15 30 -15 20 0 30 5 30
15 0 8 7 15 15 15 8 0 15 7 15 15 0 8 5 15 10 15 6 0 10 14 10 30 0 20 5 30
15 30 12 0 15 13 15 55 0 42 -3 55 -15 55 -12 0 -15 16 -15 80 0 47 -4 80 -10
80 -5 0 -10 20 -10 45 0 33 -4 45 -15 45 -11 0 -15 11 -15 40 0 29 -4 40 -15
40 -8 0 -15 7 -15 15 0 8 -7 15 -15 15 -8 0 -15 7 -15 15 0 8 -7 15 -15 15 -9
0 -15 9 -15 25 0 16 6 25 15 25 8 0 15 7 15 15 0 8 7 15 15 15 8 0 15 7 15 15
0 8 7 15 15 15 8 0 15 7 15 15 0 8 7 15 15 15 9 0 15 9 15 25 0 16 -6 25 -15
25 -8 0 -15 -7 -15 -15z"/>
<path d="M3780 2545 c0 -78 3 -95 15 -95 8 0 15 -7 15 -15 0 -8 7 -15 15 -15
11 0 15 11 15 40 0 29 -4 40 -15 40 -12 0 -15 14 -15 70 0 56 -3 70 -15 70
-12 0 -15 -17 -15 -95z"/>
<path d="M1980 2496 c0 -104 3 -125 16 -130 22 -9 34 1 34 30 0 15 -6 24 -16
24 -10 0 -15 8 -14 23 6 63 -1 177 -10 177 -6 0 -10 -48 -10 -124z"/>
<path d="M2090 2495 c0 -77 4 -125 10 -125 6 0 10 -7 10 -15 0 -8 7 -15 15
-15 12 0 15 19 15 110 0 91 -3 110 -15 110 -10 0 -15 10 -15 30 0 17 -4 30
-10 30 -6 0 -10 -48 -10 -125z"/>
<path d="M3870 2605 c0 -8 7 -15 15 -15 12 0 15 -14 15 -70 0 -40 4 -70 10
-70 6 0 10 -7 10 -15 0 -8 7 -15 16 -15 12 0 14 9 12 38 -2 23 -8 36 -15 35
-9 -2 -13 15 -13 62 0 63 -1 65 -25 65 -16 0 -25 -6 -25 -15z"/>
<path d="M3650 2575 c0 -8 5 -15 10 -15 6 0 10 -25 10 -55 0 -52 1 -55 24 -55
14 0 27 4 30 9 8 13 -4 42 -15 35 -5 -3 -9 18 -9 45 0 48 -2 51 -25 51 -16 0
-25 -6 -25 -15z"/>
<path d="M3981 2545 c3 -46 14 -59 22 -27 3 9 5 -2 6 -25 0 -24 6 -43 11 -43
6 0 10 -7 10 -15 0 -8 7 -15 15 -15 11 0 15 11 15 40 0 29 -4 40 -15 40 -11 0
-15 12 -15 45 0 42 -2 45 -25 45 -24 0 -26 -3 -24 -45z"/>
<path d="M4090 2520 c0 -38 2 -40 30 -40 25 0 30 4 30 25 0 16 -6 25 -15 25
-8 0 -15 7 -15 15 0 8 -7 15 -15 15 -11 0 -15 -11 -15 -40z"/>
<path d="M2170 2494 c0 -4 8 -13 18 -20 16 -13 16 -14 -3 -8 -19 5 -19 5 -2
-9 10 -9 17 -28 17 -51 0 -25 4 -36 15 -36 8 0 15 -7 15 -15 0 -8 5 -15 10
-15 16 0 12 129 -4 146 -14 14 -66 20 -66 8z"/>
<path d="M2310 2445 c0 -42 3 -55 15 -55 12 0 15 13 15 55 0 42 -3 55 -15 55
-12 0 -15 -13 -15 -55z"/>
<path d="M2810 2465 c0 -12 -13 -15 -55 -15 -42 0 -55 -3 -55 -15 0 -8 -7 -15
-15 -15 -8 0 -15 -7 -15 -15 0 -8 -5 -15 -11 -15 -14 0 -39 -25 -39 -39 0 -6
-7 -11 -15 -11 -8 0 -15 -7 -15 -15 0 -8 -7 -15 -15 -15 -12 0 -15 -18 -15
-99 0 -79 3 -100 15 -105 8 -3 15 -15 15 -26 0 -11 7 -20 15 -20 8 0 15 -7 15
-15 0 -8 5 -15 10 -15 6 0 10 -7 10 -15 0 -8 7 -15 15 -15 8 0 15 -4 15 -10 0
-5 7 -10 15 -10 8 0 15 -7 15 -15 0 -8 7 -15 15 -15 8 0 15 -7 15 -15 0 -11
11 -15 40 -15 29 0 40 4 40 15 0 8 -7 15 -15 15 -8 0 -15 7 -15 15 0 9 -9 15
-25 15 -14 0 -25 5 -25 10 0 6 -7 10 -15 10 -8 0 -15 7 -15 15 0 8 -7 15 -15
15 -8 0 -15 7 -15 15 0 8 -7 15 -15 15 -8 0 -15 7 -15 15 0 8 -4 15 -10 15 -6
0 -10 43 -10 110 0 67 4 110 10 110 6 0 10 7 10 15 0 10 10 15 30 15 20 0 30
5 30 15 0 8 7 15 15 15 8 0 15 5 15 10 0 6 11 10 25 10 16 0 25 6 25 15 0 13
34 15 250 15 216 0 250 -2 250 -15 0 -10 10 -15 30 -15 17 0 30 -4 30 -10 0
-5 11 -10 25 -10 16 0 25 -6 25 -15 0 -8 7 -15 15 -15 8 0 15 -7 15 -15 0 -8
7 -15 15 -15 10 0 15 -10 15 -30 0 -20 5 -30 15 -30 11 0 15 -11 15 -40 0 -29
4 -40 15 -40 8 0 15 -7 15 -15 0 -8 -7 -15 -15 -15 -9 0 -15 -9 -15 -25 0 -16
-6 -25 -15 -25 -8 0 -15 -7 -15 -15 0 -8 -7 -15 -15 -15 -8 0 -15 -7 -15 -15
0 -8 -7 -15 -15 -15 -8 0 -15 -7 -15 -15 0 -9 -9 -15 -25 -15 -14 0 -25 -4
-25 -10 0 -5 -25 -10 -55 -10 -54 0 -55 0 -55 -30 0 -27 3 -30 30 -30 22 0 28
4 24 15 -4 9 0 15 10 15 9 0 16 -7 16 -15 0 -8 7 -15 15 -15 8 0 15 7 15 15 0
9 9 15 25 15 16 0 25 6 25 15 0 10 10 15 30 15 17 0 30 5 30 10 0 6 7 10 15
10 8 0 15 7 15 15 0 8 7 15 15 15 10 0 15 10 15 30 0 17 5 30 10 30 6 0 10 11
10 25 0 16 6 25 15 25 11 0 15 12 15 45 0 33 -4 45 -15 45 -11 0 -15 11 -15
40 0 22 -4 40 -9 40 -5 0 -9 6 -8 13 1 33 -4 47 -18 47 -8 0 -15 5 -15 10 0 6
-13 10 -30 10 -20 0 -30 5 -30 15 0 9 -9 15 -25 15 -16 0 -25 6 -25 15 0 12
-14 15 -70 15 -56 0 -70 3 -70 15 0 13 -30 15 -210 15 -180 0 -210 -2 -210
-15z"/>
</g>
</svg>
